<svg xmlns="http://www.w3.org/2000/svg" viewBox="0 0 512 512">
  <defs>
    <linearGradient id="body" x1="0" y1="0" x2="0" y2="1">
      <stop offset="0" stop-color="#464646"/><stop offset="1" stop-color="#000000"/>
    </linearGradient>
    <linearGradient id="tri" x1="0" y1="0" x2="0" y2="1">
      <stop offset="0" stop-color="#ffffff"/><stop offset="1" stop-color="#c8c8c8"/>
    </linearGradient>
    <radialGradient id="sh" cx="0.5" cy="0.5" r="0.5">
      <stop offset="0" stop-color="#000" stop-opacity=".35"/><stop offset="1" stop-color="#000" stop-opacity="0"/>
    </radialGradient>
  </defs>
  <rect width="512" height="512" fill="#fff"/>
  <ellipse cx="256" cy="428" rx="150" ry="24" fill="url(#sh)"/>
  <rect x="96" y="60" width="244" height="320" rx="90" fill="url(#body)"/>
  <rect x="116" y="78" width="204" height="72" rx="36" fill="#fff" opacity=".28"/>
  <polygon points="300,200 452,300 300,400" fill="url(#tri)"/>
  <path d="M232 122 a128 128 0 1 0 0.1 0" fill="none" stroke="#fff" stroke-width="44"/>
  <g fill="#fff">
    <ellipse cx="193" cy="310" rx="29" ry="22"/>
    <ellipse cx="273" cy="310" rx="29" ry="22"/>
    <rect x="210" y="192" width="16" height="120"/>
    <rect x="290" y="192" width="16" height="120"/>
    <rect x="210" y="192" width="96" height="16"/>
  </g>
  <g fill="#d7d7d7">
    <ellipse cx="193" cy="320" rx="29" ry="12"/>
    <ellipse cx="273" cy="320" rx="29" ry="12"/>
  </g>
</svg>
